<?xml version="1.0" encoding="UTF-8" standalone="no"?>
<svg
   xmlns:dc="http://purl.org/dc/elements/1.1/"
   xmlns:cc="http://creativecommons.org/ns#"
   xmlns:rdf="http://www.w3.org/1999/02/22-rdf-syntax-ns#"
   xmlns:svg="http://www.w3.org/2000/svg"
   xmlns="http://www.w3.org/2000/svg"
   xmlns:sodipodi="http://sodipodi.sourceforge.net/DTD/sodipodi-0.dtd"
   xmlns:inkscape="http://www.inkscape.org/namespaces/inkscape"
   id="Layer_1"
   style="enable-background:new 0 0 512 512;"
   version="1.1"
   viewBox="0 0 512 512"
   xml:space="preserve"
   sodipodi:docname="no.svg"
   inkscape:version="1.0.1 (3bc2e813f5, 2020-09-07)"><metadata
     id="metadata19"><rdf:RDF><cc:Work
         rdf:about=""><dc:format>image/svg+xml</dc:format><dc:type
           rdf:resource="http://purl.org/dc/dcmitype/StillImage" /><dc:title></dc:title></cc:Work></rdf:RDF></metadata><defs
     id="defs17" /><sodipodi:namedview
     pagecolor="#ffffff"
     bordercolor="#666666"
     borderopacity="1"
     objecttolerance="10"
     gridtolerance="10"
     guidetolerance="10"
     inkscape:pageopacity="0"
     inkscape:pageshadow="2"
     inkscape:window-width="1830"
     inkscape:window-height="1051"
     id="namedview15"
     showgrid="false"
     inkscape:zoom="1.6699219"
     inkscape:cx="256"
     inkscape:cy="256"
     inkscape:window-x="81"
     inkscape:window-y="-9"
     inkscape:window-maximized="1"
     inkscape:current-layer="Layer_1" /><g
     id="g12"
     style="fill:#ff2a2a"
     inkscape:export-filename="C:\xampp\htdocs\moodle_ischolar\ischolar\pix\no.png"
     inkscape:export-xdpi="64.285713"
     inkscape:export-ydpi="64.285713"><path
       d="M256,33C132.3,33,32,133.3,32,257c0,123.7,100.3,224,224,224c123.7,0,224-100.3,224-224C480,133.3,379.7,33,256,33z    M364.3,332.5c1.5,1.5,2.3,3.5,2.3,5.6c0,2.1-0.8,4.2-2.3,5.6l-21.6,21.7c-1.6,1.6-3.6,2.3-5.6,2.3c-2,0-4.1-0.8-5.6-2.3L256,289.8   l-75.4,75.7c-1.5,1.6-3.6,2.3-5.6,2.3c-2,0-4.1-0.8-5.6-2.3l-21.6-21.7c-1.5-1.5-2.3-3.5-2.3-5.6c0-2.1,0.8-4.2,2.3-5.6l75.7-76   l-75.9-75c-3.1-3.1-3.1-8.2,0-11.3l21.6-21.7c1.5-1.5,3.5-2.3,5.6-2.3c2.1,0,4.1,0.8,5.6,2.3l75.7,74.7l75.7-74.7   c1.5-1.5,3.5-2.3,5.6-2.3c2.1,0,4.1,0.8,5.6,2.3l21.6,21.7c3.1,3.1,3.1,8.2,0,11.3l-75.9,75L364.3,332.5z"
       id="path10"
       style="fill:#ff2a2a" /></g></svg>
